<svg width="33" height="32" viewBox="0 0 33 32" fill="none" xmlns="http://www.w3.org/2000/svg">
<path d="M31.3226 19.7433C30.3282 23.7319 27.7906 27.1623 24.2677 29.2805C20.7448 31.3986 16.5249 32.031 12.5358 31.0387C4.2366 28.967 -0.822075 20.5602 1.24589 12.2629C3.31385 3.96364 11.7134 -1.10415 20.0071 0.96564C28.3264 3.00807 33.3869 11.4404 31.3226 19.7451V19.7433Z" stroke="black"/>
<path d="M11.5427 21.3117L14.63 8.92585M11.9749 8.26388L19.5993 10.1659C24.5741 11.4059 23.4654 17.236 18.166 15.9157C23.9723 17.3637 23.3815 24.2642 16.512 22.5518C13.1547 21.7129 9.55859 20.8194 9.55859 20.8194M13.1949 14.6775L18.062 15.8902M15.5145 9.14651L16.1764 6.49316M11.7633 24.1876L12.4253 21.5324M19.0523 10.0291L19.7142 7.37579M15.3029 25.0702L15.9649 22.415" stroke="black" stroke-linecap="square" stroke-linejoin="round"/>
</svg>
