<svg width="33" height="32" viewBox="0 0 33 32" fill="none" xmlns="http://www.w3.org/2000/svg">
<path d="M31.3226 19.7433C30.3282 23.7319 27.7906 27.1623 24.2677 29.2805C20.7448 31.3986 16.5249 32.031 12.5358 31.0387C4.2366 28.967 -0.822075 20.5602 1.24589 12.2629C3.31385 3.96364 11.7134 -1.10415 20.0071 0.96564C28.3264 3.00807 33.3869 11.4404 31.3226 19.7451V19.7433Z" stroke="black"/>
<path d="M16.6366 4.59603C16.3122 5.08754 9.79849 15.4729 9.78534 15.5237C9.77219 15.5661 9.82041 15.6339 9.91246 15.7017C10.0527 15.8034 13.8794 18.0025 15.6678 19.0109C16.6936 19.5872 16.7286 19.5956 17.2108 19.3499C17.373 19.2651 18.7011 18.5194 20.1608 17.6889C21.6205 16.8627 23.0363 16.0576 23.3081 15.9051C23.6851 15.6932 23.799 15.6084 23.7815 15.5534C23.7552 15.4474 16.7725 4.50281 16.733 4.50281C16.7155 4.50281 16.6716 4.54518 16.6366 4.59603ZM16.3473 9.5281C16.3473 11.8374 16.3385 12.1975 16.2771 12.3204C16.1982 12.4814 16.0448 12.5662 15.2076 12.9263C14.8832 13.0661 13.9233 13.4856 13.0729 13.8627C11.6088 14.511 11.3195 14.6212 11.3371 14.5237C11.3546 14.4136 16.2333 6.87563 16.2859 6.87563C16.3385 6.87563 16.3473 7.31629 16.3473 9.5281ZM19.7181 10.7272C21.0726 12.8373 22.164 14.5746 22.1465 14.5915C22.1114 14.6212 18.0568 12.867 17.5746 12.617C17.4431 12.545 17.2897 12.4263 17.2371 12.3458L17.1363 12.2018V9.59166C17.1363 7.63408 17.1494 6.96461 17.1889 6.92647C17.2152 6.90105 17.2459 6.87986 17.2502 6.88834C17.2546 6.89258 18.3636 8.62134 19.7181 10.7272ZM16.2859 18.3499C16.2508 18.3796 11.3108 15.6296 11.3064 15.5788C11.3064 15.5534 12.4241 15.0491 13.7961 14.4559L16.2815 13.3755L16.2947 15.8542C16.299 17.2143 16.2947 18.3372 16.2859 18.3499ZM22.1859 15.5534C22.2079 15.5788 17.3861 18.2948 17.2196 18.3499C17.1976 18.3584 17.1801 17.3669 17.1801 15.8669V13.367L19.6699 14.4475C21.0375 15.0407 22.1684 15.5407 22.1859 15.5534Z" fill="black"/>
<path d="M22.2336 17.3619C21.4396 17.8331 19.9105 18.7476 18.8352 19.3896C17.7644 20.0317 16.8297 20.5675 16.7616 20.5859C16.5847 20.6275 16.444 20.5582 15.3732 19.907C14.1118 19.1356 9.93294 16.6414 9.84673 16.609C9.80589 16.5952 9.7832 16.6137 9.7832 16.6599C9.7832 16.7615 16.6663 26.5028 16.7389 26.5028C16.7798 26.5028 23.5903 16.8862 23.7627 16.5813C23.7945 16.5213 23.79 16.5028 23.7446 16.5028C23.7083 16.5028 23.0322 16.8908 22.2336 17.3619ZM13.2543 19.5513C13.5628 19.7545 14.2343 20.198 14.738 20.5398C16.3669 21.6344 16.2353 21.4266 16.2625 22.9277C16.2852 24.2395 16.2761 24.2672 15.895 23.7407C12.4784 19.0432 12.5782 19.1818 12.6372 19.1818C12.6644 19.1818 12.9412 19.3481 13.2543 19.5513ZM20.8498 19.3204C20.5684 19.7361 17.1927 24.0686 17.1564 24.0594C17.1291 24.0502 17.1065 23.6021 17.0974 22.8631L17.0883 21.676L17.2335 21.519C17.3152 21.4312 18.1092 20.9047 18.994 20.3458C20.9632 19.1079 21.0086 19.0848 20.8498 19.3204Z" fill="black"/>
</svg>
