<svg width="16" height="16" viewBox="0 0 16 16" fill="none" xmlns="http://www.w3.org/2000/svg">
<path d="M7.44778 12.449L3.55078 8.55C4.99778 4.167 9.12978 1 13.9998 1C14.3228 1 14.6428 1.014 14.9588 1.041C14.9858 1.357 14.9998 1.677 14.9998 2.001C14.9998 6.871 11.8348 11.001 7.44778 12.449Z" stroke="white"/>
<path d="M4 12L3 13M5.5 13.5L4.5 14.5M2.5 10.5L1.5 11.5" stroke="white" stroke-linecap="round"/>
<path d="M9 8C9.55228 8 10 7.55228 10 7C10 6.44772 9.55228 6 9 6C8.44772 6 8 6.44772 8 7C8 7.55228 8.44772 8 9 8Z" stroke="white"/>
<path d="M10 2L14 6" stroke="white" stroke-linecap="round"/>
<path d="M10 11.5V15L1 6H4.5" stroke="white" stroke-linecap="round" stroke-linejoin="round"/>
</svg>
