<svg width="16" height="16" viewBox="0 0 16 16" fill="none" xmlns="http://www.w3.org/2000/svg">
<g clip-path="url(#clip0_734_2697)">
<path fill-rule="evenodd" clip-rule="evenodd" d="M6.77092 1.83175C5.59358 1.83175 4.46446 2.29945 3.63195 3.13195C2.79945 3.96446 2.33175 5.09358 2.33175 6.27092C2.33175 7.44826 2.79945 8.57738 3.63195 9.40988C4.46446 10.2424 5.59358 10.7101 6.77092 10.7101C7.94826 10.7101 9.07738 10.2424 9.90988 9.40988C10.7424 8.57738 11.2101 7.44826 11.2101 6.27092C11.2101 5.09358 10.7424 3.96446 9.90988 3.13195C9.07738 2.29945 7.94826 1.83175 6.77092 1.83175ZM1 6.27092C1 4.74038 1.60801 3.27252 2.69026 2.19026C3.77252 1.10801 5.24038 0.5 6.77092 0.5C8.30146 0.5 9.76932 1.10801 10.8516 2.19026C11.9338 3.27252 12.5418 4.74038 12.5418 6.27092C12.5418 7.80146 11.9338 9.26932 10.8516 10.3516C9.76932 11.4338 8.30146 12.0418 6.77092 12.0418C5.24038 12.0418 3.77252 11.4338 2.69026 10.3516C1.60801 9.26932 1 7.80146 1 6.27092Z" fill="white"/>
<path fill-rule="evenodd" clip-rule="evenodd" d="M10.2963 9.79563C10.4212 9.67093 10.5904 9.60089 10.7669 9.60089C10.9433 9.60089 11.1126 9.67093 11.2374 9.79563L14.7887 13.347C14.8542 13.4079 14.9066 13.4814 14.943 13.5631C14.9794 13.6448 14.999 13.733 15.0006 13.8224C15.0021 13.9118 14.9857 14.0006 14.9522 14.0835C14.9187 14.1664 14.8689 14.2417 14.8056 14.305C14.7424 14.3682 14.6671 14.418 14.5842 14.4515C14.5013 14.485 14.4125 14.5015 14.3231 14.4999C14.2336 14.4983 14.1455 14.4787 14.0638 14.4424C13.9821 14.406 13.9086 14.3535 13.8476 14.2881L10.2963 10.7367C10.1716 10.6119 10.1016 10.4426 10.1016 10.2662C10.1016 10.0897 10.1716 9.92048 10.2963 9.79563Z" fill="white"/>
</g>
<defs>
<clipPath id="clip0_734_2697">
<rect width="16" height="15.9997" fill="white"/>
</clipPath>
</defs>
</svg>
