<svg width="18" height="18" viewBox="0 0 18 18" fill="none" xmlns="http://www.w3.org/2000/svg">
<path d="M11.528 1.03134C11.7777 0.973959 12.039 0.995738 12.2757 1.09366C12.5125 1.19158 12.7128 1.36078 12.849 1.57776L14.0751 3.53526C14.1739 3.69292 14.3072 3.82617 14.4648 3.92503L16.4223 5.15108C16.6398 5.28717 16.8094 5.48767 16.9075 5.72466C17.0057 5.96166 17.0275 6.22336 16.97 6.47334L16.4519 8.72317C16.4101 8.90499 16.4101 9.09393 16.4519 9.27575L16.97 11.5268C17.027 11.7764 17.0049 12.0376 16.9067 12.2741C16.8086 12.5106 16.6393 12.7107 16.4223 12.8466L14.4648 14.0739C14.307 14.1726 14.1737 14.3058 14.0751 14.4637L12.849 16.4212C12.713 16.6384 12.5127 16.8078 12.276 16.906C12.0392 17.0041 11.7778 17.0261 11.528 16.9688L9.27693 16.4508C9.0955 16.4092 8.907 16.4092 8.72557 16.4508L6.47452 16.9688C6.22471 17.0261 5.96328 17.0041 5.72654 16.906C5.48979 16.8078 5.2895 16.6384 5.15349 16.4212L3.92743 14.4637C3.82819 14.3059 3.69451 14.1726 3.53643 14.0739L1.58017 12.8478C1.36296 12.7118 1.19351 12.5115 1.09536 12.2748C0.997214 12.038 0.975248 11.7766 1.03251 11.5268L1.54933 9.27575C1.59112 9.09393 1.59112 8.90499 1.54933 8.72317L1.03128 6.47334C0.973855 6.22323 0.995868 5.96144 1.09425 5.72443C1.19264 5.48742 1.3625 5.287 1.58017 5.15108L3.53643 3.92503C3.69454 3.82632 3.82822 3.69305 3.92743 3.53526L5.15349 1.57776C5.28959 1.36101 5.48976 1.19197 5.72624 1.09406C5.96271 0.996154 6.22379 0.974236 6.47328 1.03134L8.72434 1.54816C8.90616 1.58995 9.0951 1.58995 9.27693 1.54816L11.528 1.03134Z" stroke="white"/>
<path d="M5.93555 9.66059L8.44563 12.0646L12.0658 5.93433" stroke="white" stroke-linecap="round" stroke-linejoin="round"/>
</svg>
